{"title":"American Hustle &amp; BluRay Xtras - 2013 (No Cinavia) 1080p","uid":11635846,"size":6388469057,"categoryP":"video","categoryS":"hd___movies","magnet":"?xt=urn:btih:944643d5aa213527b62f2e311ccf386abbb75c84&amp;dn=American+Hustle+%26amp%3B+BluRay+Xtras+-+2013+%28No+Cinavia%29+1080p&amp;tr=udp%3A%2F%2Ftracker.openbittorrent.com%3A80&amp;tr=udp%3A%2F%2Fopen.demonii.com%3A1337&amp;tr=udp%3A%2F%2Ftracker.coppersurfer.tk%3A6969&amp;tr=udp%3A%2F%2Fexodus.desync.com%3A6969","seeders":4,"leechers":1,"uploader":"AlienMethod","files":21,"time":1417732430,"description":"Stax Double-Encode/MP4x264\nCinavia Removed/CinExHD\n2-Channel AAC@192knps (audio 1)\n6-Channel AC3@640kbps (audio 2)\nBluRay Extras (Making of, deleted scenes) Incl.\nEnglish Subs Incl.\n\n&quot;A con man, Irving Rosenfeld, along with his seductive partner Sydney Prosser, is forced to work for a wild FBI agent, Richie DiMaso, who pushes them into a world of Jersey powerbrokers and mafia.&quot;\n\n\n\nVideo\nID : 1\nFormat : AVC\nFormat/Info : Advanced Video Codec\nFormat profile : &lt;a class=&quot;__cf_email__&quot; href=&quot;/cdn-cgi/l/email-protection&quot; data-cfemail=&quot;2169484649616d140f11&quot;&gt;[email&amp;#160;protected]&lt;/a&gt;&lt;script cf-hash='f9e31' type=&quot;text/javascript&quot;&gt;\n/* &lt;![CDATA[ */!function(){try{var t=&quot;currentScript&quot;in document?document.currentScript:function(){for(var t=document.getElementsByTagName(&quot;script&quot;),e=t.length;e--;)if(t[e].getAttribute(&quot;cf-hash&quot;))return t[e]}();if(t&amp;&amp;t.previousSibling){var e,r,n,i,c=t.previousSibling,a=c.getAttribute(&quot;data-cfemail&quot;);if(a){for(e=&quot;&quot;,r=parseInt(a.substr(0,2),16),n=2;a.length-n;n+=2)i=parseInt(a.substr(n,2),16)^r,e+=String.fromCharCode(i);e=document.createTextNode(e),c.parentNode.replaceChild(e,c)}}}catch(u){}}();/* ]]&gt; */&lt;/script&gt;\nFormat settings, CABAC : Yes\nFormat settings, ReFrames : 8 frames\nCodec ID : avc1\nCodec ID/Info : Advanced Video Coding\nDuration : 2h 18mn\nBit rate : 3 238 Kbps\nMaximum bit rate : 27.9 Mbps\nWidth : 1 920 pixels\nHeight : 800 pixels\nDisplay aspect ratio : 2.40:1\nFrame rate mode : Constant\nFrame rate : 23.976 fps\nColor space : YUV\nChroma subsampling : 4:2:0\nBit depth : 8 bits\nScan type : Progressive\nBits/(Pixel*Frame) : 0.088\nStream size : 3.12 GiB (79%)\nTitle : AmericanHustle(Encode)_track1_und.h264\nWriting library : x264 core 142 r2479 dd79a61\nEncoded date : UTC 2014-12-04 03:52:36\nTagged date : UTC 2014-12-04 03:52:55\n\nAudio #1\nID : 2\nFormat : AAC\nFormat/Info : Advanced Audio Codec\nFormat profile : LC\nCodec ID : 40\nDuration : 2h 18mn\nBit rate mode : Variable\nBit rate : 202 Kbps\nMaximum bit rate : 269 Kbps\nChannel(s) : 2 channels\nChannel positions : Front: L R\nSampling rate : 48.0 KHz\nCompression mode : Lossy\nStream size : 199 MiB (5%)\nTitle : AH(CinEx)_track2_und_Output.m4a\nEncoded date : UTC 2014-12-04 03:52:51\nTagged date : UTC 2014-12-04 03:52:55\n\nAudio #2\nID : 3\nFormat : AC-3\nFormat/Info : Audio Coding 3\nMode extension : CM (complete main)\nFormat settings, Endianness : Big\nCodec ID : ac-3\nDuration : 2h 18mn\nBit rate mode : Constant\nBit rate : 640 Kbps\nChannel(s) : 6 channels\nChannel positions : Front: L C R, Side: L R, LFE\nSampling rate : 48.0 KHz\nBit depth : 16 bits\nCompression mode : Lossy\nStream size : 632 MiB (16%)\nTitle : AH(CinEx)_track2_und.ac3\nEncoded date : UTC 2014-12-04 03:52:52\nTagged date : UTC 2014-12-04 03:52:55\n\nm/ AM m/","torrent":{"xt":"urn:btih:944643d5aa213527b62f2e311ccf386abbb75c84","amp;dn":"American+Hustle+%26amp%3B+BluRay+Xtras+-+2013+%28No+Cinavia%29+1080p","amp;tr":["udp%3A%2F%2Ftracker.openbittorrent.com%3A80","udp%3A%2F%2Fopen.demonii.com%3A1337","udp%3A%2F%2Ftracker.coppersurfer.tk%3A6969","udp%3A%2F%2Fexodus.desync.com%3A6969"],"infoHash":"944643d5aa213527b62f2e311ccf386abbb75c84","infoHashBuffer":{"type":"Buffer","data":[148,70,67,213,170,33,53,39,182,47,46,49,28,207,56,106,187,183,92,132]},"announce":[],"urlList":[]}}